<svg xmlns="http://www.w3.org/2000/svg" xmlns:xlink="http://www.w3.org/1999/xlink" version="1.1" width="256" height="256" viewBox="0 0 256 256" xml:space="preserve">
<desc>Created with Fabric.js 1.7.22</desc>
<defs>
</defs>
<g transform="translate(128 128) scale(0.72 0.72)" style="">
	<g style="stroke: none; stroke-width: 0; stroke-dasharray: none; stroke-linecap: butt; stroke-linejoin: miter; stroke-miterlimit: 10; fill: none; fill-rule: nonzero; opacity: 1;" transform="translate(-175.05 -175.05000000000004) scale(3.89 3.89)" >
	<path d="M 45 2 c 18.403 0 33.375 14.972 33.375 33.375 c 0 7.881 -2.816 15.54 -7.929 21.566 L 45 86.91 L 19.555 56.941 c -5.113 -6.026 -7.929 -13.685 -7.929 -21.567 C 11.625 16.972 26.597 2 45 2 M 45 50.705 c 9.125 0 16.548 -7.423 16.548 -16.548 c 0 -9.125 -7.423 -16.548 -16.548 -16.548 s -16.548 7.423 -16.548 16.548 C 28.452 43.282 35.875 50.705 45 50.705 M 45 0 C 25.463 0 9.625 15.838 9.625 35.375 c 0 8.722 3.171 16.693 8.404 22.861 L 45 90 l 26.97 -31.765 c 5.233 -6.167 8.404 -14.139 8.404 -22.861 C 80.375 15.838 64.537 0 45 0 L 45 0 z M 45 48.705 c -8.035 0 -14.548 -6.513 -14.548 -14.548 c 0 -8.035 6.513 -14.548 14.548 -14.548 s 14.548 6.513 14.548 14.548 C 59.548 42.192 53.035 48.705 45 48.705 L 45 48.705 z" style="stroke: none; stroke-width: 1; stroke-dasharray: none; stroke-linecap: butt; stroke-linejoin: miter; stroke-miterlimit: 10; fill: rgb(0,0,0); fill-rule: nonzero; opacity: 1;" transform=" matrix(1 0 0 1 0 0) " stroke-linecap="round" />
</g>
</g>
</svg>